<?xml version="1.0" standalone="no"?>
<svg xmlns:xlink="http://www.w3.org/1999/xlink" id="wave" style="transform:rotate(180deg); transition: 0.3s" viewBox="0 0 1440 240" version="1.1" xmlns="http://www.w3.org/2000/svg"><defs><linearGradient id="sw-gradient-0" x1="0" x2="0" y1="1" y2="0"><stop stop-color="rgba(62, 120.375, 243, 1)" offset="0%"/><stop stop-color="rgba(67.034, 89.452, 255, 1)" offset="100%"/></linearGradient></defs><path style="transform:translate(0, 0px); opacity:1" fill="url(#sw-gradient-0)" d="M0,120L18.5,128C36.9,136,74,152,111,152C147.7,152,185,136,222,140C258.5,144,295,168,332,156C369.2,144,406,96,443,68C480,40,517,32,554,44C590.8,56,628,88,665,96C701.5,104,738,88,775,92C812.3,96,849,120,886,132C923.1,144,960,144,997,128C1033.8,112,1071,80,1108,68C1144.6,56,1182,64,1218,76C1255.4,88,1292,104,1329,92C1366.2,80,1403,40,1440,24C1476.9,8,1514,16,1551,52C1587.7,88,1625,152,1662,172C1698.5,192,1735,168,1772,156C1809.2,144,1846,144,1883,152C1920,160,1957,176,1994,184C2030.8,192,2068,192,2105,164C2141.5,136,2178,80,2215,48C2252.3,16,2289,8,2326,28C2363.1,48,2400,96,2437,124C2473.8,152,2511,160,2548,136C2584.6,112,2622,56,2640,28L2658.5,0L2658.5,240L2640,240C2621.5,240,2585,240,2548,240C2510.8,240,2474,240,2437,240C2400,240,2363,240,2326,240C2289.2,240,2252,240,2215,240C2178.5,240,2142,240,2105,240C2067.7,240,2031,240,1994,240C1956.9,240,1920,240,1883,240C1846.2,240,1809,240,1772,240C1735.4,240,1698,240,1662,240C1624.6,240,1588,240,1551,240C1513.8,240,1477,240,1440,240C1403.1,240,1366,240,1329,240C1292.3,240,1255,240,1218,240C1181.5,240,1145,240,1108,240C1070.8,240,1034,240,997,240C960,240,923,240,886,240C849.2,240,812,240,775,240C738.5,240,702,240,665,240C627.7,240,591,240,554,240C516.9,240,480,240,443,240C406.2,240,369,240,332,240C295.4,240,258,240,222,240C184.6,240,148,240,111,240C73.8,240,37,240,18,240L0,240Z"/></svg>