<?xml version="1.0" standalone="no"?>
<svg xmlns:xlink="http://www.w3.org/1999/xlink" id="wave" style="transform:rotate(0deg); transition: 0.3s" viewBox="0 0 1440 190" version="1.1" xmlns="http://www.w3.org/2000/svg"><defs><linearGradient id="sw-gradient-0" x1="0" x2="0" y1="1" y2="0"><stop stop-color="rgba(71.069, 62, 243, 1)" offset="0%"/><stop stop-color="rgba(87.937, 163.541, 253.008, 1)" offset="100%"/></linearGradient></defs><path style="transform:translate(0, 0px); opacity:1" fill="url(#sw-gradient-0)" d="M0,76L18.5,88.7C36.9,101,74,127,111,114C147.7,101,185,51,222,34.8C258.5,19,295,38,332,57C369.2,76,406,95,443,101.3C480,108,517,101,554,82.3C590.8,63,628,32,665,28.5C701.5,25,738,51,775,63.3C812.3,76,849,76,886,66.5C923.1,57,960,38,997,31.7C1033.8,25,1071,32,1108,50.7C1144.6,70,1182,101,1218,95C1255.4,89,1292,44,1329,34.8C1366.2,25,1403,51,1440,79.2C1476.9,108,1514,139,1551,155.2C1587.7,171,1625,171,1662,171C1698.5,171,1735,171,1772,164.7C1809.2,158,1846,146,1883,123.5C1920,101,1957,70,1994,66.5C2030.8,63,2068,89,2105,107.7C2141.5,127,2178,139,2215,148.8C2252.3,158,2289,165,2326,145.7C2363.1,127,2400,82,2437,57C2473.8,32,2511,25,2548,25.3C2584.6,25,2622,32,2640,34.8L2658.5,38L2658.5,190L2640,190C2621.5,190,2585,190,2548,190C2510.8,190,2474,190,2437,190C2400,190,2363,190,2326,190C2289.2,190,2252,190,2215,190C2178.5,190,2142,190,2105,190C2067.7,190,2031,190,1994,190C1956.9,190,1920,190,1883,190C1846.2,190,1809,190,1772,190C1735.4,190,1698,190,1662,190C1624.6,190,1588,190,1551,190C1513.8,190,1477,190,1440,190C1403.1,190,1366,190,1329,190C1292.3,190,1255,190,1218,190C1181.5,190,1145,190,1108,190C1070.8,190,1034,190,997,190C960,190,923,190,886,190C849.2,190,812,190,775,190C738.5,190,702,190,665,190C627.7,190,591,190,554,190C516.9,190,480,190,443,190C406.2,190,369,190,332,190C295.4,190,258,190,222,190C184.6,190,148,190,111,190C73.8,190,37,190,18,190L0,190Z"/></svg>